<?xml version="1.0" standalone="no"?><svg xmlns="http://www.w3.org/2000/svg" viewBox="0 0 1440 320"><path fill="#409EFF" fill-opacity="1" d="M0,192L34.3,197.3C68.6,203,137,213,206,192C274.3,171,343,117,411,122.7C480,128,549,192,617,208C685.7,224,754,192,823,160C891.4,128,960,96,1029,80C1097.1,64,1166,64,1234,80C1302.9,96,1371,128,1406,144L1440,160L1440,320L1405.7,320C1371.4,320,1303,320,1234,320C1165.7,320,1097,320,1029,320C960,320,891,320,823,320C754.3,320,686,320,617,320C548.6,320,480,320,411,320C342.9,320,274,320,206,320C137.1,320,69,320,34,320L0,320Z"></path></svg>